<svg width="200" height="58" viewBox="0 0 4010 630" fill="none" xmlns="http://www.w3.org/2000/svg">
    <path d="M327 630C507.599 630 654 488.966 654 314.987C654 141.047 507.599 0 327 0C146.401 0 0 141.034 0 315C0 488.966 146.401 630 327 630Z" fill="url(#paint0_radial_7197_3843)"/>
    <path d="M786.75 459V168.091H996.409V231.727H865.727V281.727H985.614V345.364H865.727V395.364H995.841V459H786.75ZM1035.58 168.091H1133.87L1201.49 332.864H1204.9L1272.51 168.091H1370.81V459H1293.53V290.818H1291.26L1226.49 456.727H1179.9L1115.12 289.682H1112.85V459H1035.58V168.091ZM1978.3 168.091V459H1912.39L1807.28 306.159H1805.57V459H1726.59V168.091H1793.64L1897.05 320.364H1899.32V168.091H1978.3ZM2015.66 459V168.091H2141.79C2163.95 168.091 2182.56 171.074 2197.62 177.04C2212.77 183.006 2224.18 191.434 2231.85 202.324C2239.61 213.214 2243.5 226.045 2243.5 240.818C2243.5 251.519 2241.13 261.273 2236.39 270.08C2231.75 278.886 2225.22 286.273 2216.79 292.239C2208.36 298.11 2198.52 302.182 2187.25 304.455V307.295C2199.75 307.769 2211.11 310.941 2221.34 316.812C2231.57 322.589 2239.71 330.591 2245.77 340.818C2251.83 350.951 2254.86 362.883 2254.86 376.614C2254.86 392.523 2250.69 406.68 2242.36 419.085C2234.12 431.491 2222.38 441.244 2207.13 448.347C2191.89 455.449 2173.71 459 2152.59 459H2015.66ZM2094.63 395.932H2131.57C2144.82 395.932 2154.77 393.47 2161.39 388.545C2168.02 383.527 2171.34 376.14 2171.34 366.386C2171.34 359.568 2169.78 353.792 2166.65 349.057C2163.53 344.322 2159.07 340.723 2153.3 338.261C2147.62 335.799 2140.75 334.568 2132.7 334.568H2094.63V395.932ZM2094.63 285.705H2127.02C2133.93 285.705 2140.04 284.616 2145.34 282.438C2150.65 280.259 2154.77 277.134 2157.7 273.062C2160.73 268.896 2162.25 263.83 2162.25 257.864C2162.25 248.867 2159.03 242.002 2152.59 237.267C2146.15 232.438 2138 230.023 2128.16 230.023H2094.63V285.705ZM2282.84 459V168.091H2492.5V231.727H2361.82V281.727H2481.71V345.364H2361.82V395.364H2491.93V459H2282.84ZM2688.49 259C2687.73 249.53 2684.18 242.144 2677.84 236.841C2671.59 231.538 2662.07 228.886 2649.29 228.886C2641.14 228.886 2634.47 229.881 2629.26 231.869C2624.14 233.763 2620.36 236.367 2617.89 239.682C2615.43 242.996 2614.15 246.784 2614.06 251.045C2613.87 254.549 2614.48 257.722 2615.9 260.562C2617.42 263.309 2619.79 265.818 2623.01 268.091C2626.23 270.269 2630.35 272.258 2635.37 274.057C2640.38 275.856 2646.35 277.466 2653.26 278.886L2677.13 284C2693.22 287.409 2707 291.907 2718.46 297.494C2729.92 303.081 2739.29 309.663 2746.59 317.239C2753.88 324.72 2759.23 333.148 2762.64 342.523C2766.14 351.898 2767.94 362.125 2768.04 373.205C2767.94 392.333 2763.16 408.527 2753.69 421.784C2744.22 435.042 2730.68 445.127 2713.06 452.04C2695.54 458.953 2674.47 462.409 2649.85 462.409C2624.57 462.409 2602.51 458.669 2583.66 451.188C2564.91 443.706 2550.33 432.201 2539.91 416.67C2529.59 401.045 2524.38 381.064 2524.29 356.727H2599.29C2599.76 365.629 2601.98 373.11 2605.96 379.17C2609.94 385.231 2615.53 389.824 2622.72 392.949C2630.01 396.074 2638.68 397.636 2648.72 397.636C2657.15 397.636 2664.2 396.595 2669.88 394.511C2675.56 392.428 2679.87 389.54 2682.81 385.847C2685.74 382.153 2687.26 377.939 2687.35 373.205C2687.26 368.754 2685.79 364.871 2682.95 361.557C2680.2 358.148 2675.66 355.117 2669.31 352.466C2662.97 349.72 2654.4 347.163 2643.6 344.795L2614.63 338.545C2588.87 332.958 2568.56 323.631 2553.69 310.562C2538.92 297.4 2531.58 279.455 2531.67 256.727C2531.58 238.261 2536.5 222.116 2546.44 208.29C2556.48 194.369 2570.36 183.527 2588.06 175.761C2605.87 167.996 2626.27 164.114 2649.29 164.114C2672.77 164.114 2693.08 168.044 2710.22 175.903C2727.36 183.763 2740.57 194.843 2749.85 209.142C2759.23 223.347 2763.96 239.966 2764.06 259H2688.49ZM2790.12 231.727V168.091H3042.96V231.727H2955.46V459H2877.62V231.727H2790.12Z" fill="#171818"/>
    <path d="M1690.05 313.545C1690.05 345.932 1683.76 373.252 1671.16 395.506C1658.57 417.665 1641.57 434.473 1620.17 445.932C1598.76 457.295 1574.9 462.977 1548.58 462.977C1522.06 462.977 1498.1 457.248 1476.7 445.79C1455.39 434.237 1438.44 417.381 1425.85 395.222C1413.35 372.968 1407.1 345.742 1407.1 313.545C1407.1 281.159 1413.35 253.886 1425.85 231.727C1438.44 209.473 1455.39 192.665 1476.7 181.301C1498.1 169.843 1522.06 164.114 1548.58 164.114C1574.9 164.114 1598.76 169.843 1620.17 181.301C1641.57 192.665 1658.57 209.473 1671.16 231.727C1683.76 253.886 1690.05 281.159 1690.05 313.545ZM1608.8 313.545C1608.8 296.121 1606.48 281.443 1601.84 269.511C1597.3 257.485 1590.53 248.394 1581.53 242.239C1572.63 235.989 1561.64 232.864 1548.58 232.864C1535.51 232.864 1524.47 235.989 1515.48 242.239C1506.58 248.394 1499.81 257.485 1495.17 269.511C1490.62 281.443 1488.35 296.121 1488.35 313.545C1488.35 330.97 1490.62 345.695 1495.17 357.722C1499.81 369.653 1506.58 378.744 1515.48 384.994C1524.47 391.15 1535.51 394.227 1548.58 394.227C1561.64 394.227 1572.63 391.15 1581.53 384.994C1590.53 378.744 1597.3 369.653 1601.84 357.722C1606.48 345.695 1608.8 330.97 1608.8 313.545Z" fill="#F95D3B"/>
    <path d="M3152.38 459V168.091H3231.35V395.364H3348.97V459H3152.38ZM3651.38 313.545C3651.38 345.932 3645.08 373.252 3632.49 395.506C3619.89 417.665 3602.9 434.473 3581.49 445.932C3560.09 457.295 3536.23 462.977 3509.9 462.977C3483.39 462.977 3459.43 457.248 3438.03 445.79C3416.72 434.237 3399.77 417.381 3387.18 395.222C3374.68 372.968 3368.43 345.742 3368.43 313.545C3368.43 281.159 3374.68 253.886 3387.18 231.727C3399.77 209.473 3416.72 192.665 3438.03 181.301C3459.43 169.843 3483.39 164.114 3509.9 164.114C3536.23 164.114 3560.09 169.843 3581.49 181.301C3602.9 192.665 3619.89 209.473 3632.49 231.727C3645.08 253.886 3651.38 281.159 3651.38 313.545ZM3570.13 313.545C3570.13 296.121 3567.81 281.443 3563.17 269.511C3558.62 257.485 3551.85 248.394 3542.86 242.239C3533.96 235.989 3522.97 232.864 3509.9 232.864C3496.84 232.864 3485.8 235.989 3476.81 242.239C3467.91 248.394 3461.13 257.485 3456.49 269.511C3451.95 281.443 3449.68 296.121 3449.68 313.545C3449.68 330.97 3451.95 345.695 3456.49 357.722C3461.13 369.653 3467.91 378.744 3476.81 384.994C3485.8 391.15 3496.84 394.227 3509.9 394.227C3522.97 394.227 3533.96 391.15 3542.86 384.994C3551.85 378.744 3558.62 369.653 3563.17 357.722C3567.81 345.695 3570.13 330.97 3570.13 313.545ZM3876.84 264.114C3875.61 259.095 3873.67 254.691 3871.02 250.903C3868.37 247.021 3865.05 243.754 3861.08 241.102C3857.19 238.356 3852.65 236.32 3847.44 234.994C3842.33 233.574 3836.69 232.864 3830.54 232.864C3817.28 232.864 3805.96 236.036 3796.59 242.381C3787.31 248.725 3780.2 257.864 3775.28 269.795C3770.45 281.727 3768.04 296.121 3768.04 312.977C3768.04 330.023 3770.36 344.606 3775 356.727C3779.64 368.848 3786.55 378.129 3795.73 384.568C3804.92 391.008 3816.33 394.227 3829.97 394.227C3841.99 394.227 3851.98 392.475 3859.94 388.972C3867.99 385.468 3874 380.496 3877.98 374.057C3881.96 367.617 3883.94 360.042 3883.94 351.33L3897.58 352.75H3831.1V296.5H3960.08V336.841C3960.08 363.356 3954.45 386.036 3943.18 404.881C3932 423.631 3916.57 438.025 3896.87 448.062C3877.27 458.006 3854.78 462.977 3829.4 462.977C3801.08 462.977 3776.23 456.964 3754.83 444.938C3733.42 432.911 3716.71 415.771 3704.68 393.517C3692.75 371.263 3686.79 344.795 3686.79 314.114C3686.79 290.061 3690.43 268.754 3697.72 250.193C3705.11 231.633 3715.34 215.96 3728.4 203.176C3741.47 190.297 3756.58 180.591 3773.72 174.057C3790.86 167.428 3809.23 164.114 3828.83 164.114C3846.07 164.114 3862.07 166.576 3876.84 171.5C3891.71 176.33 3904.83 183.242 3916.19 192.239C3927.65 201.14 3936.88 211.699 3943.89 223.915C3950.9 236.131 3955.16 249.53 3956.67 264.114H3876.84Z" fill="#F95661"/>
    <path d="M304.2 159.312C311.632 155.815 319.764 154 328 154C336.236 154 344.368 155.815 351.8 159.312C358.334 162.4 364.322 167.434 372.697 174.477L374.008 175.555C381.968 182.255 389.581 185.425 400.212 186.259L401.904 186.39C412.883 187.256 420.728 187.86 427.561 190.246C435.327 192.949 442.382 197.33 448.207 203.067C454.033 208.804 458.482 215.752 461.229 223.403C463.634 230.135 464.248 237.865 465.127 248.683L465.26 250.35C466.106 260.824 469.34 268.325 476.123 276.169L477.218 277.444C484.366 285.712 489.491 291.612 492.609 298.05C496.158 305.373 498 313.385 498 321.5C498 329.615 496.158 337.627 492.609 344.95C489.474 351.388 484.366 357.288 477.218 365.54L476.123 366.831C469.19 374.838 466.089 382.372 465.26 392.65L465.127 394.317C464.248 405.135 463.634 412.865 461.213 419.597C458.469 427.249 454.023 434.199 448.201 439.939C442.378 445.679 435.326 450.063 427.561 452.77C420.728 455.14 412.883 455.744 401.904 456.61L400.212 456.741C389.581 457.575 381.968 460.761 374.008 467.445L372.697 468.523C364.322 475.566 358.334 480.616 351.8 483.688C344.368 487.185 336.236 489 328 489C319.764 489 311.632 487.185 304.2 483.688C297.666 480.6 291.678 475.566 283.303 468.523L281.992 467.445C274.761 461.022 265.51 457.243 255.788 456.741L254.096 456.61C243.117 455.744 235.272 455.14 228.439 452.754C220.673 450.051 213.618 445.67 207.793 439.933C201.967 434.196 197.518 427.248 194.771 419.597C192.366 412.865 191.752 405.135 190.873 394.317L190.74 392.65C190.231 383.071 186.395 373.956 179.877 366.831L178.782 365.54C171.634 357.288 166.509 351.388 163.391 344.95C159.842 337.627 158 329.615 158 321.5C158 313.385 159.842 305.373 163.391 298.05C166.526 291.612 171.634 285.712 178.782 277.46L179.877 276.169C186.395 269.044 190.231 259.929 190.74 250.35L190.873 248.683C191.752 237.865 192.366 230.135 194.787 223.403C197.531 215.751 201.977 208.801 207.799 203.061C213.622 197.321 220.674 192.937 228.439 190.23C235.272 187.86 243.117 187.256 254.096 186.39L255.788 186.259C265.51 185.757 274.761 181.978 281.992 175.555L283.286 174.477C291.678 167.434 297.666 162.384 304.2 159.312ZM286.537 243.878C283.238 243.878 280.074 245.17 277.741 247.468C275.408 249.767 274.098 252.884 274.098 256.135V386.865C274.098 393.631 279.671 399.121 286.537 399.121H369.463C372.762 399.121 375.926 397.83 378.259 395.532C380.592 393.233 381.902 390.116 381.902 386.865C381.902 383.615 380.592 380.498 378.259 378.199C375.926 375.901 372.762 374.609 369.463 374.609H298.976V333.756H352.878C356.177 333.756 359.341 332.465 361.674 330.166C364.006 327.868 365.317 324.75 365.317 321.5C365.317 318.249 364.006 315.132 361.674 312.834C359.341 310.535 356.177 309.244 352.878 309.244H298.976V268.391H369.463C372.762 268.391 375.926 267.099 378.259 264.801C380.592 262.502 381.902 259.385 381.902 256.135C381.902 252.884 380.592 249.767 378.259 247.468C375.926 245.17 372.762 243.878 369.463 243.878H286.537Z" fill="white"/>
    <defs>
        <radialGradient id="paint0_radial_7197_3843" cx="0" cy="0" r="1" gradientUnits="userSpaceOnUse" gradientTransform="translate(327 315) rotate(90) scale(315 327)">
            <stop stop-color="#FA3DEA"/>
            <stop offset="1" stop-color="#F9660B"/>
        </radialGradient>
    </defs>
</svg>
